# xmcd
#
# Track frame offsets: 
#        150
#        3315
#        18265
#        34560
#        52905
#        71610
#        81212
#        94990
#        104355
#        120662
#        138477
#        161675
#        177722
#        187892
#
# Disc length: 2696 seconds
#
# Revision: 2
# Processed by: cddbd v1.5.2PL0 Copyright (c) Steve Scherf et al.
# Submitted via: ExactAudioCopy v1.0b1
#
DISCID=b20a860e
DTITLE=Sven-Bertil Taube - Alderville Road
DYEAR=2007
DGENRE=Folk
TTITLE0=Intro: Alderville Road
TTITLE1=Bibbi
TTITLE2=Morgon I Ligurien
TTITLE3=Målaren Och Maria Pia
TTITLE4=Vackert Så (duett med Håkan Hellström)
TTITLE5=Brittisk Ballad
TTITLE6=Albertina
TTITLE7=Och Skulle Det Så Vara.... (duett med Lisa Nilsson)
TTITLE8=Fragancia
TTITLE9=Linnea
TTITLE10=Balladen Om Gustaf Blom Från Borås
TTITLE11=Sjösalavår
TTITLE12=Här Ar Den Sköna Sommar
TTITLE13=Som Stjärnor Små (duett med Lisa Nilsson)
EXTD=
EXTT0=
EXTT1=
EXTT2=
EXTT3=
EXTT4=
EXTT5=
EXTT6=
EXTT7=
EXTT8=
EXTT9=
EXTT10=
EXTT11=
EXTT12=
EXTT13=
PLAYORDER=
